<svg id="Isolation_Mode" data-name="Isolation Mode" xmlns="http://www.w3.org/2000/svg" viewBox="0 0 246.89 38.74"><defs><style>.cls-1{fill:#1d1d1b;}</style></defs><title>arrow</title><path class="cls-1" d="M429.36,205.86a0.24,0.24,0,0,0-.07-0.42h-0.05s0,0,0-.06h0.06a0.42,0.42,0,0,0,.09-0.82c-6.65-2.1-13.88-2.57-20.75-3.65s-13.91-2.32-20.83-3.68c-1.14-.22-2.3,1.34-1.2,2.18a40.28,40.28,0,0,0,5.85,3.82c-18.64-.52-37.31-0.76-55.93-1.11q-46.46-.88-92.93-1.13l-15.3-.08a63,63,0,0,0-4.45-8.25c-1.76-3.06-4.46-6.34-5.56-9.67a1.13,1.13,0,0,0-2.2.33c0.11,2.78,3.11,6.27,4.44,8.61a100.64,100.64,0,0,0,5.24,9l-8.64,0a0.89,0.89,0,0,0,0-.41c-0.69-2.87-2.65-5.49-4.11-8-1.29-2.24-2.32-4.84-4.44-6.37a0.51,0.51,0,0,0-.76.46c0.18,2.62,1.91,4.91,3.14,7.18s2.41,5.11,4.21,7.16h-8.52a1.22,1.22,0,0,0-.18-0.55,114.23,114.23,0,0,0-9.19-12.78c-0.66-.82-2-0.06-1.44.89,2.67,4.16,5.29,8.41,8.15,12.45l-7.43,0a1,1,0,0,0-.05-0.59c-1.07-2.4-3.38-4.34-5.15-6.26s-3.48-4.29-5.79-5.49a0.57,0.57,0,0,0-.82.65c1,2.33,3,4.17,4.68,6.06s3.14,4.12,5.11,5.63h-3.29a0.87,0.87,0,0,0,0,1.73h2.27a55.1,55.1,0,0,0-4.63,3.74c-2.06,1.74-4.39,3.39-6,5.59-0.61.85,0.59,1.7,1.35,1.29,2.36-1.29,4.33-3.46,6.29-5.29a36.3,36.3,0,0,0,5.18-5.32l8.25,0c-4.48,3.74-9.6,7.72-12.89,12.42a1,1,0,0,0,1.35,1.28c5.21-3.41,9.66-9.09,13.82-13.69l7.69,0a51.76,51.76,0,0,0-3.92,4.6c-1.69,2.07-3.75,4.16-5,6.54a1,1,0,0,0,1.59,1.16c2.07-1.76,3.68-4.36,5.32-6.52a35.86,35.86,0,0,0,4-5.77l9.62,0a77.08,77.08,0,0,0-6.8,7.29c-2.13,2.6-4,6.05-6.45,8.44a1.16,1.16,0,0,0-.71.79l0,0.2a1.21,1.21,0,0,0,1.49,1.44c2.71-.8,5-5.77,6.72-7.93,2.71-3.41,5.49-6.75,8.14-10.21,49.46,0.22,98.9.7,148.35,1.91,6,0.15,12.08.33,18.12,0.5a52.2,52.2,0,0,0-10.11,5,1.16,1.16,0,0,0,.62,2.13c7.91-.68,15.81-1.5,23.69-2.52,3.81-.49,7.62-1,11.42-1.59C423.22,207.75,426.73,207.65,429.36,205.86Z" transform="translate(-182.82 -182.21)"/></svg>