<svg id="Isolation_Mode" data-name="Isolation Mode" xmlns="http://www.w3.org/2000/svg" viewBox="0 0 246.79 38.79"><defs><style>.cls-1{fill:#1d1d1b;}</style></defs><title>arrow</title><path class="cls-1" d="M237.26,23.88c-3.79.63-7.6,1.18-11.4,1.71-7.87,1.1-15.76,2-23.66,2.77a1.16,1.16,0,0,1-.64-2.12,52.2,52.2,0,0,1,10.06-5.15c-6-.11-12.09-0.23-18.13-0.31C144,20.09,94.57,20.14,45.11,20.43c-2.61,3.48-5.36,6.86-8,10.3-1.7,2.18-3.93,7.17-6.64,8a1.21,1.21,0,0,1-1.51-1.42l0-.2a1.16,1.16,0,0,1,.7-0.79c2.4-2.41,4.26-5.88,6.36-8.51a77.08,77.08,0,0,1,6.72-7.36l-9.62.07a35.86,35.86,0,0,1-3.92,5.81C27.6,28.51,26,31.13,24,32.91a1,1,0,0,1-1.6-1.14c1.18-2.4,3.22-4.5,4.88-6.59a51.76,51.76,0,0,1,3.87-4.64l-7.69.05C19.31,25.23,14.92,31,9.75,34.42a1,1,0,0,1-1.36-1.26c3.24-4.73,8.32-8.76,12.76-12.55l-8.25.06A36.3,36.3,0,0,1,7.77,26c-1.95,1.84-3.89,4-6.24,5.35-0.76.42-2-.42-1.37-1.27C1.72,27.91,4,26.23,6.07,24.47a55.1,55.1,0,0,1,4.59-3.79l-2.27,0a0.87,0.87,0,0,1,0-1.73l3.29,0c-2-1.49-3.55-3.76-5.17-5.58s-3.75-3.69-4.74-6a0.57,0.57,0,0,1,.81-0.66c2.32,1.17,4.08,3.56,5.84,5.43s4.12,3.81,5.21,6.21a1,1,0,0,1,.06.59l7.42-.1c-2.9-4-5.57-8.23-8.28-12.36-0.61-.94.76-1.71,1.43-0.9A114.23,114.23,0,0,1,23.55,18.2a1.22,1.22,0,0,1,.18.55l8.52-.08c-1.82-2-3-4.75-4.29-7.12S25,7,24.75,4.41a0.51,0.51,0,0,1,.75-0.46C27.63,5.45,28.7,8,30,10.27c1.49,2.52,3.48,5.13,4.2,8a0.89,0.89,0,0,1,0,.41l8.64-.07a100.64,100.64,0,0,1-5.33-8.91C36.16,7.35,33.12,3.9,33,1.11A1.13,1.13,0,0,1,35.18.76c1.13,3.32,3.86,6.57,5.66,9.61a63,63,0,0,1,4.54,8.2l15.3-.08q46.47-.24,92.94.15c18.63,0.16,37.29.2,55.94,0.52a40.28,40.28,0,0,1-5.89-3.75c-1.11-.83,0-2.41,1.17-2.19q10.4,1.92,20.86,3.46c6.88,1,14.12,1.4,20.79,3.43a0.42,0.42,0,0,1-.09.82h-0.06s0,0,0,.06h0.05a0.24,0.24,0,0,1,.07.42C243.85,23.23,240.33,23.37,237.26,23.88Z"/></svg>