<svg id="Layer_1" data-name="Layer 1" xmlns="http://www.w3.org/2000/svg" viewBox="0 0 21.87 86.62"><title>grass</title><path d="M2.29,1.88L3.92,5.33c1,2.21,2.44,5.38,4,9.24S11.29,23,13,28s3.29,10.35,4.69,15.79a209.13,209.13,0,0,1,5.48,30.56c0.48,4.23.6,7.78,0.77,10.27l0.23,3.91-10.92-.26,0.23-3.71c0.13-2.36.43-5.74,0.48-9.81,0.08-2,0-4.24,0-6.58s-0.08-4.81-.25-7.35c-0.23-5.11-.72-10.56-1.43-16s-1.6-10.86-2.66-15.92-2.21-9.75-3.3-13.75S4.22,7.81,3.48,5.5Z" transform="translate(-2.29 -1.88)"/></svg>